inDegrees=no
num_controls=7
num_derivatives=13
num_iterations=136
num_multipliers=7
num_parameters=0
num_slacks=7
num_states=26
objective=0.445904
objective_accelerations=0.057258
objective_balance=0.003388
objective_effort=0.023445
objective_height=0.356246
objective_ligament=0.005568
solver_duration=1838.257688
status=Solve_Succeeded
success=true
DataType=double
version=3
OpenSimVersion=4.5
endheader
time	/jointset/ground_pelvis/pelvis_tilt/value	/jointset/ground_pelvis/pelvis_tx/value	/jointset/ground_pelvis/pelvis_ty/value	/jointset/hip_l/hip_flexion_l/value	/jointset/hip_l/hip_adduction_l/value	/jointset/hip_l/hip_rotation_l/value	/jointset/back/lumbar_extension/value	/jointset/patellofemoral_l/patellar_flexion_l/value	/jointset/knee_l/knee_flexion_l/value	/jointset/knee_l/knee_adduction_l/value	/jointset/knee_l/knee_rotation_l/value	/jointset/ankle_l/ankle_angle_l/value	/jointset/subtalar_l/subtalar_angle_l/value	/jointset/ground_pelvis/pelvis_tilt/speed	/jointset/ground_pelvis/pelvis_tx/speed	/jointset/ground_pelvis/pelvis_ty/speed	/jointset/hip_l/hip_flexion_l/speed	/jointset/hip_l/hip_adduction_l/speed	/jointset/hip_l/hip_rotation_l/speed	/jointset/back/lumbar_extension/speed	/jointset/patellofemoral_l/patellar_flexion_l/speed	/jointset/knee_l/knee_flexion_l/speed	/jointset/knee_l/knee_adduction_l/speed	/jointset/knee_l/knee_rotation_l/speed	/jointset/ankle_l/ankle_angle_l/speed	/jointset/subtalar_l/subtalar_angle_l/speed	/forceset/tau_hip_flexion_l	/forceset/tau_hip_adduction_l	/forceset/tau_hip_rotation_l	/forceset/tau_knee_flexion_l	/forceset/tau_ankle_angle_l	/forceset/tau_subtalar_angle_l	/forceset/tau_lumbar_extension	lambda_cid13_p0	lambda_cid13_p1	lambda_cid13_p2	lambda_cid13_p3	lambda_cid13_p4	lambda_cid13_p5	lambda_cid14_p0	/jointset/ground_pelvis/pelvis_tilt/accel	/jointset/ground_pelvis/pelvis_tx/accel	/jointset/ground_pelvis/pelvis_ty/accel	/jointset/hip_l/hip_flexion_l/accel	/jointset/hip_l/hip_adduction_l/accel	/jointset/hip_l/hip_rotation_l/accel	/jointset/back/lumbar_extension/accel	/jointset/patellofemoral_l/patellar_flexion_l/accel	/jointset/knee_l/knee_flexion_l/accel	/jointset/knee_l/knee_adduction_l/accel	/jointset/knee_l/knee_rotation_l/accel	/jointset/ankle_l/ankle_angle_l/accel	/jointset/subtalar_l/subtalar_angle_l/accel	gamma_cid13_p0	gamma_cid13_p1	gamma_cid13_p2	gamma_cid13_p3	gamma_cid13_p4	gamma_cid13_p5	gamma_cid14_p0
0	-0.03906604067872026	0.06871062675062457	0.895932304893291	0.1955287580552426	-0.3222000056893201	-0.4795327690659896	-0.1379045077516729	0.07015288079084855	0.07015288079084844	-0.1745329042709936	-0.1141919528330084	-0.06701059314715049	0.003567989033124534	0	0	0	0	0	0	0	0	0	0	0	0	0	0.1040967817500585	-0.09593368327249252	-0.02863428806712591	-0.2276700765537022	0.1818532631943681	-0.01416421829723952	-0.04998818205233903	22.75115797227574	-0.8653893494221788	3.266860644706036	2.760013099984352	-515.0871416298463	-80.72253391881812	-39.81881387586084	-4.49073516281591	-1.920241329456888	-0.9821257327374736	12.6343172786738	-2.116539286496702	3.289873634396436	-2.858943503245987	10.14823838326851	10.14823838326845	0.5910871439363754	-0.8779124874127496	2.179124458331865	-1.136837076593746	-2.537980114191114e-08	9.750319386670829e-08	1.211407180181248e-07	6.968918813481788e-09	-1.0884661522462e-08	-4.110623833525465e-08	-8.691317357289227e-09
0.01	-0.03928037070914446	0.0686159898264746	0.8958846234669866	0.1961398431595816	-0.3223041759619251	-0.479367567356301	-0.1380531655084302	0.07064576097671189	0.07064576097671323	-0.1745067142616365	-0.1142296669295244	-0.06690621312765327	0.003510431798585956	-0.04266822365544243	-0.01883208736376044	-0.009504551001461832	0.1216614554700643	-0.02072459903376584	0.03291622507722909	-0.02945566558580069	0.09813036231385294	0.09813036231384857	0.00523534712539069	-0.007481776734465435	0.02079604747365489	-0.01143617734361379	0.09979953586607535	-0.09584679369182363	-0.02785479707877699	-0.2226827503219504	0.174776261738742	-0.0106048788105082	-0.04627659337939623	20.5852786306471	-2.02588946308102	3.444917975613147	3.320191720412669	-515.9748434195878	-83.0432111750616	-39.82890100466621	-4.125209068393915	-1.850396426149672	-0.929861821867647	11.84871416286875	-2.034029503791261	3.273864850222152	-2.947495221356986	9.578585664848761	9.578585664848449	0.4893907436931859	-0.6741406149380951	2.017852942723175	-1.135747017141482	-6.571034463820028e-08	1.357193461280137e-07	1.952977376473136e-07	4.515150110643707e-08	-2.358947139001343e-07	-8.45108590527151e-08	-1.404495559468157e-08
0.02	-0.03991545159642134	0.06833589123142415	0.895742848123064	0.1979508737149597	-0.3226123140832626	-0.4788769298146728	-0.1384881033480679	0.07210657488759718	0.07210657488759721	-0.1744282443316518	-0.1143403648630754	-0.06659627102325139	0.003340764999831976	-0.08415017137030138	-0.03709233418009198	-0.01881878352361676	0.2399890902079681	-0.04079356974652126	0.0650871663878984	-0.05725601657599374	0.1935867450039086	0.1935867450039123	0.01045598412489177	-0.01459676740791759	0.04111241698094427	-0.02242191284307937	0.09550228998209315	-0.09575990411115415	-0.02707530609045419	-0.2176954240901943	0.1676992602831165	-0.007045539323775553	-0.04256500470645316	18.48180926289044	-3.198565857835538	3.626343832392224	3.728769156600747	-515.9470758985001	-85.2042875344919	-39.85856122203786	-4.253479974699197	-1.805873219971119	-0.9440620368760922	11.9675531322417	-1.985413622294617	3.140816881084479	-2.527880584124445	9.613442458509045	9.61344245851147	0.58814511875845	-0.8045552752100957	2.083188865058749	-1.046748707764114	-1.060408881344894e-07	1.739354983893191e-07	2.694547572765024e-07	8.333408339939235e-08	-4.609047662778065e-07	-1.279154797701755e-07	-1.93985938320739e-08
0.03	-0.04095997735345301	0.06787599411801845	0.8955085671655546	0.2009296908209243	-0.3231177811321944	-0.4780686321204598	-0.1391925029593552	0.07450927597844235	0.07450927597844248	-0.1742974664560927	-0.1145209398580175	-0.06608540228704063	0.003063656999775687	-0.1245497102362651	-0.05479450076053159	-0.02802823959284807	0.3552266830490816	-0.060183742052908	0.09643733384092952	-0.08338660863121723	0.2865128773600309	0.2865128773600122	0.01568430873768637	-0.02146930425548031	0.06097406203314202	-0.03292267345528865	0.09097401195961276	-0.09196951572447218	-0.02632605522665031	-0.2132989056854892	0.1629466393228937	-0.006938869067580081	-0.03879442654732933	16.99505764775702	-3.073721161747062	3.708268148654609	4.167695304915022	-515.8436190048346	-84.3343248802871	-39.90656187728618	-3.902411977136862	-1.738483394941451	-0.9081052242181252	11.21969605094444	-1.898450672651497	3.111825657624043	-2.620053958648655	9.066113154760847	9.066113154756012	0.4879435821518914	-0.621230917279384	1.924560455050335	-1.0402453730902	-1.339847814968161e-07	1.940189289090476e-07	3.231067370904693e-07	1.10018335263227e-07	-6.239256227547689e-07	-1.598376094012269e-07	-2.340469706271635e-08
0.04	-0.04240234272606391	0.06724185633523611	0.8951824480808985	0.2050444505934786	-0.3238136762317577	-0.4769508909556734	-0.1401510895796806	0.07782802129896726	0.07782802129896663	-0.1741148518444821	-0.1147687658269861	-0.0653785354743579	0.002683840266569122	-0.1637180944858991	-0.07194046805541986	-0.0371864089529556	0.4671776235261267	-0.07887917987292627	0.1269758605024247	-0.1080934183835323	0.3767955909400334	0.3767955909399813	0.0208233313349576	-0.02804696221304415	0.08031203227534102	-0.04296365947313281	0.08644573393712394	-0.08817912733779	-0.02557680436284606	-0.2089023872807926	0.1581940183626671	-0.00683219881138642	-0.03502384838820864	15.56539946567399	-2.958656224021996	3.79150450157229	4.465590722382799	-514.9069931519169	-83.31321860887829	-39.97140848920219	-4.007249051433243	-1.694633362860859	-0.9338046950513351	11.31022265942801	-1.846466725020922	2.978488722777281	-2.243124123542742	9.084758703285074	9.084758703285294	0.5702847156537729	-0.7455794972103241	1.978453903058984	-0.9547937888910982	-1.616732800110199e-07	2.137284888774033e-07	3.763359325783492e-07	1.364655081491417e-07	-7.856683514812011e-07	-1.915229866387441e-07	-2.73830160664155e-08
0.05	-0.04423101120969845	0.06643910801684032	0.8947647287937841	0.2102636369480085	-0.324693002736771	-0.4755319864204052	-0.1413488230993862	0.08203724995719595	0.08203724995719512	-0.1738810291415308	-0.1150813512504594	-0.06448049285061482	0.002206180609487878	-0.2018105370791964	-0.08850597287366337	-0.04636536042123381	0.5761071375417006	-0.09686122517455933	0.1566753143893923	-0.1312148563349584	0.4646053836667168	0.4646053836667512	0.02592157610177499	-0.03441228527307467	0.09921649223367859	-0.05247910821048807	0.08172260558505159	-0.08515787174565308	-0.024855169731214	-0.2053587423096853	0.1540771203947801	-0.006131611478166034	-0.03114601303148544	14.35455578886882	-3.107961428358157	3.880472545184768	4.580794168768269	-514.079656128093	-82.81239026857045	-40.05122672921871	-3.679493554291051	-1.621998122003693	-0.911285606092433	10.60141508920539	-1.755396615805152	2.9461632231619	-2.310889247520587	8.562381510260545	8.562381510273225	0.4767274242499085	-0.5732849378667283	1.834438292775537	-0.9366214700745805	-1.795733317362276e-07	2.209460339243086e-07	4.110092539107689e-07	1.544274951525408e-07	-8.896895111884377e-07	-2.130484244172963e-07	-3.001401700684968e-08
